<?xml version="1.0" encoding="utf-8"?>
<!-- Generator: Adobe Illustrator 19.1.0, SVG Export Plug-In . SVG Version: 6.00 Build 0)  -->
<svg version="1.1"
	 id="svg2" xmlns:svg="http://www.w3.org/2000/svg" xmlns:rdf="http://www.w3.org/1999/02/22-rdf-syntax-ns#" xmlns:cc="http://creativecommons.org/ns#" xmlns:dc="http://purl.org/dc/elements/1.1/"
	 xmlns="http://www.w3.org/2000/svg" xmlns:xlink="http://www.w3.org/1999/xlink" x="0px" y="0px" viewBox="762.5 68.6 409.3 586.3"
	 style="enable-background:new 762.5 68.6 409.3 586.3;" xml:space="preserve">
<style type="text/css">
	.st0{fill:#FF6600;stroke:#660000;stroke-width:6;stroke-linecap:round;}
</style>
<g id="layer1" transform="translate(0 -308.27)">
	<path id="rect3109" class="st0" d="M1065.7,483.4c-74.8-55.3-139.4-43.3-199,0C877.9,333,1070.6,358.3,1065.7,483.4z"/>
	<path id="rect3112" class="st0" d="M863.1,490.3c2.7-40.5,28.1-91.1,62.9-102.3c-26.6,72.4,22.1,176.3,78.8,276.7
		s127.9,193.2,161.2,238l-51.3,2l-14.2,51.4c-25.9-38.7-89-123.8-142.4-213.9C904.6,652.1,858.7,557.1,863.1,490.3L863.1,490.3z"/>
	<path id="use3115" class="st0" d="M1071.2,490.3c-2.7-40.5-28.1-91.1-62.9-102.3c26.6,72.4-22.1,176.2-78.8,276.6
		s-127.9,193.2-161.2,238l51.3,2l14.2,51.4c25.9-38.8,89-123.8,142.5-213.9C1029.8,652,1075.6,557.1,1071.2,490.3L1071.2,490.3z"/>
</g>
</svg>
